<svg xmlns="http://www.w3.org/2000/svg" data-name="Layer 1" height="88" id="Layer_1" viewBox="0 0 88 88" width="88"><title/><path d="M70.65,68.54,67.8,45.47A10,10,0,0,0,68.45,42v-9.8H57.29V25.9a13.25,13.25,0,1,0-26.49,0v6.26H19.55V42a9.72,9.72,0,0,0,.64,3.47l-2.88,23.1a5.08,5.08,0,0,0,0,.78,6.16,6.16,0,0,0,6.11,6.19H64.58q.4,0,.81,0a6.09,6.09,0,0,0,4-2.38A6.26,6.26,0,0,0,70.65,68.54ZM32.84,25.9a11.21,11.21,0,1,1,22.41,0v6.26H52.19V25.9a8.19,8.19,0,0,0-7.88-8.25H44A8.2,8.2,0,0,0,35.9,25.9v6.26H32.84Zm17.32,0v6.26H37.93V25.9A6.16,6.16,0,0,1,44,19.71h.24A6.17,6.17,0,0,1,50.16,25.9Zm17.64,46a4.09,4.09,0,0,1-2.71,1.56H23.45a4.1,4.1,0,0,1-4.07-4.12,4.51,4.51,0,0,1,0-.52L21.9,48.35a9.63,9.63,0,0,0,7.33,3.41h6.43a6.14,6.14,0,0,0-.83,3.1V60a2,2,0,0,0,2,2.06h1.48l-.12,2.08v.34A5.83,5.83,0,0,0,44,70.34h.34a5.8,5.8,0,0,0,4-2,5.9,5.9,0,0,0,1.43-4.23l-.12-2.07h1.5a2,2,0,0,0,2-2.06V54.86a6.24,6.24,0,0,0-.83-3.1h2.95V49.7H50.56l.33-5.94v-.25a4.11,4.11,0,0,0-4.08-4.13H40.94a4.11,4.11,0,0,0-2.81,1.37,4.19,4.19,0,0,0-1,3l.33,6h-8.2a7.64,7.64,0,0,1-6.94-4.51,7.73,7.73,0,0,1-.68-2.77c0-.15,0-.3,0-.46V34.23H66.41V42c0,.14,0,.28,0,.42a7.94,7.94,0,0,1-.68,2.81,7.79,7.79,0,0,1-1.54,2.24,7.68,7.68,0,0,1-2.88,1.84v2.16a9.73,9.73,0,0,0,4.81-3.08l2.52,20.47A4.16,4.16,0,0,1,67.8,71.87ZM39.54,51a3.87,3.87,0,0,1,1.4-.27h6.12a3.82,3.82,0,0,1,1.39.27,3.89,3.89,0,0,1,1,.57l.23.19a4.52,4.52,0,0,1,.69.76,4.15,4.15,0,0,1,.72,2.34V60H49.51L49.39,58l-.13-2.17-.07-1a2,2,0,0,0-.86-1.56,2,2,0,0,0-1.17-.38H40.82a2,2,0,0,0-1.16.37,2.06,2.06,0,0,0-.88,1.57v.06L38.6,58,38.48,60H36.87V54.86a4.18,4.18,0,0,1,.72-2.34,4.13,4.13,0,0,1,.69-.76l.3-.26A4.38,4.38,0,0,1,39.54,51Zm-.4-7.38a2.05,2.05,0,0,1,.52-1.49,2,2,0,0,1,1.41-.68h5.75a2,2,0,0,1,2,2.06l-.29,5.36a5.85,5.85,0,0,0-1.51-.2H40.94a5.79,5.79,0,0,0-1.51.2Zm8.58,20.67a3.7,3.7,0,0,1-6.26,2.95,3.85,3.85,0,0,1-1.18-2.74v-.22l.13-2.2.06-1,.06-1L40.65,58l.06-1,.06-1,.06-1h6.34l.06,1,.06,1,.06,1L47.47,60l.06,1,.06,1Z" fill="#38c4d9"/><path d="M57.29,49.7v2.06h2V49.68l-.52,0Z" fill="#38c4d9"/><path d="M43,56.92V59h0a1,1,0,1,0,2,0v-3.1H43Z" fill="#38c4d9"/></svg>