<svg xmlns="http://www.w3.org/2000/svg" data-name="Layer 1" height="88" id="Layer_1" viewBox="0 0 88 88" width="88"><title/><path d="M64,51a1,1,0,0,1,1,1v8a1,1,0,0,1-.89,1H64L49.29,75.7a1,1,0,0,1-.7.29H39.41a1,1,0,0,1-.7-.29L24,61a1,1,0,0,1-1-1V52a1,1,0,0,1,1-1ZM60.17,62H27.83l12,12h8.35ZM25,59H63V57H60V55h3V53H25v2h3v2H25Zm8-4v2H30V55Zm5,0v2H35V55Zm5,0v2H40V55Zm5,0v2H45V55Zm5,0v2H50V55Zm5,0v2H55V55ZM32,12a1,1,0,0,1,1,1V24.48a8,8,0,0,1,3.08,1.23l6.81,4.55a2,2,0,0,0,2.22,0l6.81-4.55A8,8,0,0,1,55,24.48V13a1,1,0,0,1,1-1h4a1,1,0,0,1,1,1V25.78L65,28V42l-5.28,2.94a8,8,0,0,1-7.47.18l-7.36-3.67a2,2,0,0,0-1.78,0l-7.36,3.67A7.9,7.9,0,0,1,28.28,45L23,42V28l4-2.22V13a1,1,0,0,1,1-1ZM63,37H25v3.83l4.25,2.37a6,6,0,0,0,5.6.13l7.36-3.67a4,4,0,0,1,3.58,0l7.36,3.67a6,6,0,0,0,5.6-.13L63,40.83ZM28.76,27.11,25,29.18V30h3v2H25v2H63V32H60V30h3v-.82l-3.73-2.07a6,6,0,0,0-6.24.26l-6.81,4.55a4,4,0,0,1-4.44,0L35,27.37A6,6,0,0,0,28.76,27.11ZM33,30v2H30V30Zm5,0v2H35V30Zm15,0v2H50V30Zm5,0v2H55V30ZM31,14H29v10.8a7.67,7.67,0,0,1,2-.42Zm28,0H57V24.39a7.76,7.76,0,0,1,2,.42Z" fill="#38c4d9"/></svg>