<svg xmlns="http://www.w3.org/2000/svg" data-name="Layer 1" height="88" id="Layer_1" viewBox="0 0 88 88" width="88"><title/><rect height="2" width="1.94" x="50.77" y="35" fill="#38c4d9"/><path d="M29.44,60.42l.12.06a.94.94,0,0,0,.62,0,1,1,0,0,0,.59-.46L34.16,54a1,1,0,0,0-.35-1.33l-.1-.06-.12,0a.94.94,0,0,0-1.11.43l-3.4,6.06A1,1,0,0,0,29.44,60.42Z" fill="#38c4d9"/><path d="M75,54,64.14,25.26,64,25a7.81,7.81,0,0,0-5.89-4.74l-3.4-.56-.09-4.76A3,3,0,0,0,51.74,12H35.26a3,3,0,0,0-2.91,3v4.75l-2.49.45A7.77,7.77,0,0,0,24,25.13L13,54V64a2.38,2.38,0,0,0,1.5,2.34l8.34,1.85.42,4.22A3.92,3.92,0,0,0,27.12,76H60.84a3.92,3.92,0,0,0,3.86-3.58l.42-4.27,8.36-1.8a2,2,0,0,0,1.53-2ZM62.25,25.78l5.29,14L60.6,42.35,57,31a1,1,0,0,0-1.21-.66h-.08a.93.93,0,0,0-.59,1.16L56.2,35H54.65v2h2.2l3.56,11H45V37h3.88V35H45V22.67c4.13-.05,7-.43,8.59-1.12l4.3.7A5.86,5.86,0,0,1,62.25,25.78ZM43,48H27.43L30.9,37H43Zm8.73-34a1,1,0,0,1,1,1l.1,4.38-1.92-.32L50.66,19H48.83V14ZM34.29,15a1,1,0,0,1,1-1H46.89v5H36.37l-2.08.39ZM25.84,25.85a5.83,5.83,0,0,1,4.37-3.69l3.25-.61c1.84.7,5,1.08,9.54,1.13h0V35H31.53l1.08-3.41a.09.09,0,0,0,0-.05A.92.92,0,0,0,32,30.42h0a1,1,0,0,0-1.2.67L27.24,42.3,20.5,39.77ZM22.65,66.1,14.9,64.38V61.13h0l7.75,1.41Zm0-9.1v3.51L14.9,59.1V54.38l4.89-12.75,6.86,2.57ZM27.1,74a2,2,0,0,1-1.94-1.79l-.57-5.66V57l2.21-7H43V63H28.47a1,1,0,0,0-1,1v.11a1,1,0,0,0,1,.89H43v9Zm36.27-7.5-.59,5.71A2,2,0,0,1,60.84,74H45V65H59.5a1,1,0,0,0,1-1v-.12a1,1,0,0,0-1-.88H45V50H61.06l2.31,7.15Zm9.7-2.15-7.76,1.72V62.72l7.76-1.41Zm0-5.06-7.76,1.41V57l-4.1-12.75,7-2.65h0l4.82,12.74Z" fill="#38c4d9"/><path d="M55.74,53a1,1,0,0,0-.59-.47h0a.92.92,0,0,0-.74.1l-.1.06a1,1,0,0,0-.37.56,1,1,0,0,0,.11.78l3.39,6a1,1,0,0,0,.59.47,1,1,0,0,0,.74-.1l.11-.08a1,1,0,0,0,.35-.53,1.05,1.05,0,0,0-.1-.76Z" fill="#38c4d9"/></svg>