<svg xmlns="http://www.w3.org/2000/svg" data-name="Layer 1" height="88" id="Layer_1" viewBox="0 0 88 88" width="88"><title/><path d="M75.27,57.18c-1-1.82-2.12-3.63-3.14-5.47s-2-3.62-2.86-5.47c-1.07-2.22-2.1-4.47-3.06-6.75q-1.11-2.66-2-5.38c-.27-.84-.52-1.69-.76-2.54l-.23-.82h.05a1,1,0,0,0,1-1v-5a1,1,0,0,0-1-1h-1V20.93c0-.84-.37-1.18-1.22-1.18H28c-.86,0-1.2.31-1.21,1.18,0,.43,0,.85,0,1.28v1.54h-1a3.5,3.5,0,0,0-.19,7h0l0,.05c-.89,2.43-1.79,4.86-2.79,7.25-.46,1.11-1,2.21-1.48,3.29l-1,2.18C19.67,44.79,19,46,18.36,47.29S17,49.8,16.33,51c-.55,1-1.12,2-1.69,2.93s-1.24,2.09-1.87,3.13a.37.37,0,0,0,.05.5A11.13,11.13,0,0,0,15,59.45a22.5,22.5,0,0,0,4.15,2.11,19.64,19.64,0,0,0,4.31,1.23l.92.13a8.84,8.84,0,0,1-.25.88.52.52,0,0,0,.23.69A10.16,10.16,0,0,0,27.21,66a25.4,25.4,0,0,0,6.69,1.29A8,8,0,0,0,36.7,67a.39.39,0,0,1,.26,0,6.74,6.74,0,0,0,2.47.82c1.24.16,2.48.3,3.74.34a22.25,22.25,0,0,0,6-.47,5.88,5.88,0,0,0,2.42-1.08l.09-.06a.65.65,0,0,1,.43-.09c.57.07,1.15.15,1.72.2A17.48,17.48,0,0,0,61.39,66a15.62,15.62,0,0,0,3.24-1.63.26.26,0,0,0,.13-.37l-.09-.26-.15-.54.15,0c.93-.14,1.86-.24,2.78-.43A10.71,10.71,0,0,0,72,60.76a18.08,18.08,0,0,0,3.27-3.27A.31.31,0,0,0,75.27,57.18ZM59.91,21.74H60c.19,0,.25.08.25.31v1.7h-19v7h8v2h-10v-11Zm-1.64,5.51a1.5,1.5,0,1,1-1.5-1.5A1.5,1.5,0,0,1,58.27,27.25Zm-8.5,1.5a1.5,1.5,0,1,1,1.5-1.5A1.5,1.5,0,0,1,49.77,28.75Zm-12.5-7v2H28.82v-2Zm-3,5.51a1.5,1.5,0,1,1-1.5-1.5A1.5,1.5,0,0,1,34.27,27.25ZM69,60.17a14.28,14.28,0,0,1-3.4.81l-1.33.14c-.23,0-.33,0-.39-.28l-6-20.1a1,1,0,0,0-1.2-.68h0l-.12,0A.9.9,0,0,0,56,41.19l6.36,21.66.06.24a.29.29,0,0,1-.11.26,12.43,12.43,0,0,1-4.49,1.35,25.74,25.74,0,0,1-5.62-.2h-.08l-.17,0-.18-1.66-2.22-21a1,1,0,0,0-1-.9h-.09l-.14,0a.94.94,0,0,0-.73,1L49.9,64.58l.08.63a.24.24,0,0,1-.2.23l-.44.12a15.05,15.05,0,0,1-1.76.43,22.53,22.53,0,0,1-4.34.23,18,18,0,0,1-4-.45c-.32-.08-.62-.2-.93-.29S38,65.27,38,65l2.44-23.09V41.8a1,1,0,0,0-.9-.94h-.13a1,1,0,0,0-1,.89L36,64.9a.27.27,0,0,1-.25.27,7.1,7.1,0,0,1-2.39,0c-1.14-.15-2.27-.33-3.39-.56a14.24,14.24,0,0,1-3.45-1.13c-.19-.09-.23-.18-.17-.4l6-21.92v0a.86.86,0,0,0-.68-1l-.12,0a1,1,0,0,0-1,.72L25.88,57.37l-1,3.45-.09.17a30.26,30.26,0,0,1-3.11-.68,32.58,32.58,0,0,1-3.87-1.56,24.13,24.13,0,0,1-2.56-1.58.29.29,0,0,1,0-.27l1.08-1.85c.81-1.42,1.62-2.84,2.42-4.28.62-1.11,1.24-2.22,1.81-3.35,1-2.05,2.06-4.09,3-6.16q1.21-2.64,2.27-5.34c.36-.92.69-1.84,1-2.77l.84-2.4h9.57v3a1,1,0,0,0,1,1h12a1,1,0,0,0,1-1v-3h9.82l.31,1.07c.28,1,.57,1.93.88,2.88.43,1.3.87,2.61,1.39,3.88.8,2,1.63,4,2.53,5.93s1.92,4,3,5.93c.49.92,1,1.84,1.5,2.74l1.54,2.73.24.41.49.83A10.46,10.46,0,0,1,69,60.17Z" fill="#38c4d9"/></svg>