<svg xmlns="http://www.w3.org/2000/svg" data-name="Layer 1" height="88" id="Layer_1" viewBox="0 0 88 88" width="88"><title/><path d="M74.89,55.27q-.26-.75-12.24-35.14l-8-7.12a19.88,19.88,0,0,1-10.27,3,22.86,22.86,0,0,1-11.06-3l-7.71,6.92L13.14,55.25a2.34,2.34,0,0,0-.13.69c0,1.61,0,5.87,0,6.4a.94.94,0,0,0,1,1h1.18c0,.13.39,3.07.53,4,0,.46.44.63.9.61l6.39,0c.13,0,.2,0,.23.17.42,1.94.8,4,1.21,6a1,1,0,0,0,1,.81H62.55a1,1,0,0,0,1-.81c.42-2,.85-4,1.29-6H71.2a.94.94,0,0,0,1.08-.93c.17-1.24.34-2.47.49-3.71,0-.18.08-.22.25-.22h.92a1,1,0,0,0,1-1.08q0-3.2,0-6.39A1.92,1.92,0,0,0,74.89,55.27ZM54.82,15.66,58,18.4l-12.2,4.45ZM44.39,17.94a21.79,21.79,0,0,0,7.31-1.58l-7.33,5.76L37,16.36A22.19,22.19,0,0,0,44.39,17.94Zm-11-2.42h0l9,7.32,0,.06L30.08,18.44ZM17.52,66.27l-.38-2.89h5l.63,2.89Zm4.32-4.66H15V56.15a1.4,1.4,0,0,1,.08-.49q5.64-16,11.32-32h0c.1.51.62,3.28.66,3.66A5,5,0,0,1,27,28.61ZM63,67.08H58V70h4.67l-.56,3H26l-.53-3H51V67.07H25l-.79-3.26-.45-2.2q5-32.1,5.23-33.56a3.34,3.34,0,0,0-.06-1.18l-1.19-6.22.74-.75,8.75,3.21v6.31l-1.78,4.46a1.23,1.23,0,0,0,0,.19,1,1,0,0,0,1,.92H40a.88.88,0,0,0,.91-.93q0-.29-1.76-4.59V23.8l5.22,1.63,4.45-1.6V35.28a20.3,20.3,0,0,0-1.75,4.5,1,1,0,0,0,1.07,1.27h3.36a1,1,0,0,0,1-1.21,16.66,16.66,0,0,0-1.78-4.55V23.38h0q0-.27,8.87-3.48l.94,1q-1.11,4.79-1.38,6.24a4.11,4.11,0,0,0,0,1.4l5,32.94Zm7.45-.79H65.23l.63-2.9h5ZM66.27,61.4c-.18-1.18-5-32.35-5.16-33.41a2.43,2.43,0,0,1,0-.76c.2-1.15.66-3.53.68-3.56C62,24,73,55.77,73,55.94l.09,5.5Z" fill="#38c4d9"/><path d="M57.37,57.55a5.16,5.16,0,0,1-.79-.09,5.6,5.6,0,0,1-3.9-2.71,5.81,5.81,0,0,1-1-3.53l0-.42H49.91a.59.59,0,0,0,0,.14A20.13,20.13,0,0,0,50,53a8,8,0,0,0,1.69,3.73A6.44,6.44,0,0,0,56,59.38l.77.08.79.06V57.75C57.58,57.6,57.51,57.56,57.37,57.55Z" fill="#38c4d9"/><polygon points="53.01 70 56.02 70 56.02 67.08 53.01 67.07 53.01 70" fill="#38c4d9"/><polygon points="47.84 50.82 47.84 50.82 47.84 50.82 47.84 50.82" fill="#38c4d9"/><path d="M36.19,52.91a8.63,8.63,0,0,1-1.48,2.69,4.78,4.78,0,0,1-2.54,1.71c-.55.15-1.12.21-1.7.32v1.83l.17,0a8,8,0,0,0,5.72-2.9,10.37,10.37,0,0,0,1.85-3.88h9.63V50.82H36.27A6,6,0,0,1,36.19,52.91Z" fill="#38c4d9"/></svg>