<svg xmlns="http://www.w3.org/2000/svg" data-name="Layer 1" height="88" id="Layer_1" viewBox="0 0 88 88" width="88"><title/><path d="M54.16,23.1a1.5,1.5,0,1,0,1.5,1.5A1.5,1.5,0,0,0,54.16,23.1Z" fill="#38c4d9"/><path d="M48.16,23.1a1.5,1.5,0,1,0,1.5,1.5A1.5,1.5,0,0,0,48.16,23.1Z" fill="#38c4d9"/><path d="M66,32.09l-4-5h-.24v-6a1,1,0,0,0-1-1H27.63a2,2,0,0,0-2,2v5.42L22,32.09l-7,28,26,6,2.66-16h.83l2.51,16,26-6Zm-22.31-10h16v5h-16Zm3.31,8v6a3,3,0,0,1-2,2.83V30.09Zm-7.31-8h2v5h-2Zm-4.5,0h2.5v5h-2.5a2.5,2.5,0,0,1,0-5Zm-7.59,0h3.85a4.49,4.49,0,0,0,0,5H27.57ZM46.46,50a1,1,0,0,0-.29-1.85v0H42A1,1,0,0,0,41.65,50L39.4,63.66l-22-5.06,3.91-15.53C30.11,42.4,32,37.33,32,33.16H30c0,4.76-2.59,7.27-8.14,7.86l2-8L27,29.1H43v14a1,1,0,0,0,2,0V41a5,5,0,0,0,4-4.9v-7H61L64.14,33l2,7.93C60.56,40.36,58,37.84,58,33.09H56c0,4.14,1.84,9.19,10.55,9.9h.11l3.9,15.62L48.61,63.68Z" fill="#38c4d9"/></svg>